<svg width="740px" height="624px" viewBox="0 0 740 624" version="1.1" xmlns="http://www.w3.org/2000/svg" fill-rule="evenodd" clip-rule="evenodd" stroke-miterlimit="10"><path d="M530.97 614.43c89.84 0 162.68-135.43 162.68-302.5S620.8 9.43 530.97 9.43c-89.85 0-162.68 135.43-162.68 302.5s72.83 302.5 162.68 302.5Z" fill="none" stroke="#000" stroke-width=".5"></path><path d="M370.08 327.2c1.63 41.8 9.9 78.34 21.93 101.94 9.03 17.7 20.2 28.13 32.25 28.13 11.34 0 21.9-9.23 30.63-25.09 11.2 3.6 23.1 5.53 35.44 5.53 66.56 0 120.53-56.31 120.53-125.78S556.9 186.15 490.32 186.15c-12.33 0-24.23 1.94-35.43 5.53-8.73-15.86-19.3-25.1-30.63-25.1-12.06 0-23.22 10.43-32.25 28.14-12.03 23.6-20.3 60.13-21.93 101.95-2.5-94.02-28.1-176.75-66.45-229.02-26.97-36.77-60.26-58.47-96.27-58.47s-69.3 21.7-96.28 58.47c-40.41 55.07-66.65 143.98-66.65 244.28 0 100.3 26.24 189.2 66.65 244.28 26.97 36.77 60.27 58.47 96.28 58.47 36 0 69.3-21.7 96.27-58.47 38.35-52.26 63.94-135 66.45-229.02ZM207.36 614.17c-35.87 0-69.01-21.64-95.88-58.26C71.12 500.9 44.93 412.1 44.93 311.93s26.2-188.98 66.55-243.99c26.87-36.62 60.01-58.26 95.88-58.26 35.86 0 69 21.64 95.87 58.26 40.36 55.01 66.56 143.81 66.56 244 0 100.17-26.2 188.97-66.56 243.98-26.87 36.62-60 58.26-95.87 58.26Zm76.07-422.5c-11.2-3.6-23.1-5.53-35.43-5.53-66.57 0-120.54 56.31-120.54 125.78S181.43 437.71 248 437.71c12.33 0 24.24-1.94 35.43-5.53 8.73 15.86 19.3 25.1 30.64 25.1 12.05 0 23.21-10.43 32.24-28.14 13.47-26.43 22.23-69.08 22.23-117.2v-.01c0-48.13-8.76-90.78-22.23-117.21-9.03-17.7-20.2-28.13-32.24-28.13-11.35 0-21.9 9.23-30.64 25.09Zm87.11 134.4c1.53 42.19 9.8 79.08 21.92 102.83 8.92 17.5 19.9 27.86 31.8 27.86 11.18 0 21.54-9.14 30.14-24.74-44.86-14.6-78.48-55.82-83.86-105.95Zm-2.76 0c-5.38 50.14-39 91.35-83.86 105.95 8.6 15.6 18.96 24.74 30.15 24.74 11.9 0 22.88-10.36 31.8-27.86 12.1-23.75 20.38-60.64 21.91-102.83Zm-84.6-133.96a115.38 115.38 0 0 0-35.18-5.47c-66.3 0-120.04 56.1-120.04 125.28 0 69.19 53.74 125.28 120.04 125.28 12.24 0 24.06-1.92 35.19-5.47-.46-.85-.92-1.72-1.37-2.6-13.47-26.43-22.22-69.08-22.22-117.21 0-48.13 8.75-90.78 22.22-117.21.45-.88.9-1.75 1.37-2.6Zm171.95 239.62a115.39 115.39 0 0 0 35.2 5.47c66.3 0 120.03-56.1 120.03-125.28 0-69.19-53.74-125.28-120.04-125.28-12.24 0-24.06 1.92-35.19 5.47.46.85.92 1.72 1.37 2.6 13.47 26.43 22.23 69.08 22.23 117.21 0 48.13-8.76 90.78-22.23 117.21-.45.88-.9 1.75-1.37 2.6ZM283.67 192.28c48.88 15.86 84.37 63.43 84.37 119.65 0 56.22-35.49 103.8-84.37 119.65-.47-.87-.94-1.76-1.4-2.67-13.45-26.37-22.17-68.95-22.17-116.98s8.72-90.6 22.17-116.98c.46-.91.93-1.8 1.4-2.67Zm170.98 0c.47.87.94 1.76 1.4 2.67 13.45 26.37 22.18 68.95 22.18 116.98s-8.73 90.6-22.18 116.98c-.46.91-.93 1.8-1.4 2.67-48.88-15.86-84.36-63.43-84.36-119.65 0-56.22 35.48-103.8 84.36-119.65Zm-.25-.45c-8.6-15.6-18.96-24.74-30.14-24.74-11.9 0-22.88 10.36-31.8 27.86-12.11 23.75-20.4 60.64-21.92 102.83 5.38-50.13 39-91.35 83.86-105.95Zm-86.62 105.95c-1.52-42.19-9.8-79.08-21.91-102.83-8.92-17.5-19.9-27.86-31.8-27.86-11.19 0-21.55 9.14-30.15 24.74 44.87 14.6 78.48 55.82 83.86 105.95Z" fill="none" stroke="#000" stroke-width=".25"></path><path d="M369 317.17c3.87 0 7-3.27 7-7.3 0-4.04-3.13-7.3-7-7.3s-7 3.26-7 7.3c0 4.03 3.13 7.3 7 7.3Zm-85-117.88c3.87 0 7-3.27 7-7.3 0-4.04-3.13-7.3-7-7.3s-7 3.26-7 7.3c0 4.03 3.13 7.3 7 7.3Z" fill="#fbfbfb" fill-rule="nonzero" stroke="#000" stroke-width=".5"></path><path d="M729.05 311.93c0 53.14-57.4 100.25-145.91 129.57-59.61 19.75-133.33 31.42-213.13 31.42C171.74 472.9 11 400.84 11 311.93c0-56.36 64.58-105.94 162.34-134.7 56.5-16.62 124.06-26.29 196.67-26.29 30.59 0 60.25 1.71 88.6 4.94 59.33 6.76 112.79 20.14 156.2 38.28 70.29 29.4 114.24 71.28 114.24 117.77Z" fill="none" stroke="#000" stroke-width=".5" stroke-dasharray="5,5"></path><circle class="c-animation__dot" r="7" fill="white" stroke="black" stroke-width="0.5px" style="transition: all 240ms linear 0s;" transform="translate(677,228)"></circle><circle class="c-animation__dot" r="7" style="transition: all 240ms linear 0s;" transform="translate(452,576)"></circle></svg>